<mxfile host="app.diagrams.net" modified="2023-07-25T13:44:58.225Z" agent="Mozilla/5.0 (Windows NT 10.0; Win64; x64) AppleWebKit/537.36 (KHTML, like Gecko) Chrome/114.0.0.0 Safari/537.36" etag="2MRcxLO-O7Q8ZwoTB3mV" version="21.6.5" type="device">
  <diagram name="Página-1" id="qBSSXRKxBomLlhVmfmv1">
    <mxGraphModel dx="1050" dy="581" grid="1" gridSize="10" guides="1" tooltips="1" connect="1" arrows="1" fold="1" page="1" pageScale="1" pageWidth="827" pageHeight="1169" math="0" shadow="0">
      <root>
        <mxCell id="0" />
        <mxCell id="1" parent="0" />
        <mxCell id="nSm_Fh-NACfpATgbBI2l-1" value="&lt;div style=&quot;font-size: 13px;&quot;&gt;&lt;font style=&quot;font-size: 13px;&quot;&gt;Uma clínica veterinária deseja cadastrar os pets que são atendidos em seu local.&lt;/font&gt;&lt;/div&gt;&lt;div style=&quot;font-size: 13px;&quot;&gt;&lt;font style=&quot;font-size: 13px;&quot;&gt;&lt;br&gt;&lt;/font&gt;&lt;/div&gt;&lt;div style=&quot;font-size: 13px;&quot;&gt;&lt;font style=&quot;font-size: 13px;&quot;&gt;- a clínica contém um endereço;&lt;/font&gt;&lt;/div&gt;&lt;div style=&quot;font-size: 13px;&quot;&gt;&lt;font style=&quot;font-size: 13px;&quot;&gt;- os pets deverão ter nome, data de nascimento, tipo de pet;&lt;/font&gt;&lt;/div&gt;&lt;div style=&quot;font-size: 13px;&quot;&gt;&lt;font style=&quot;font-size: 13px;&quot;&gt;- os pets deverão ter raça;&lt;/font&gt;&lt;/div&gt;&lt;div style=&quot;font-size: 13px;&quot;&gt;&lt;font style=&quot;font-size: 13px;&quot;&gt;- os pets deverão ter donos;&lt;/font&gt;&lt;/div&gt;&lt;div style=&quot;font-size: 13px;&quot;&gt;&lt;font style=&quot;font-size: 13px;&quot;&gt;- a clínica deseja cadastrar seus veterinários e todo atendimento de pet será feito por um veterinário;&lt;/font&gt;&lt;/div&gt;" style="text;html=1;align=left;verticalAlign=middle;resizable=0;points=[];autosize=1;strokeColor=none;fillColor=none;" parent="1" vertex="1">
          <mxGeometry x="114" width="600" height="120" as="geometry" />
        </mxCell>
        <mxCell id="nSm_Fh-NACfpATgbBI2l-2" value="&lt;font style=&quot;font-size: 13px;&quot;&gt;&lt;font style=&quot;font-size: 13px;&quot;&gt;C&lt;/font&gt;línica&lt;/font&gt;" style="swimlane;fontStyle=0;childLayout=stackLayout;horizontal=1;startSize=30;horizontalStack=0;resizeParent=1;resizeParentMax=0;resizeLast=0;collapsible=1;marginBottom=0;whiteSpace=wrap;html=1;" parent="1" vertex="1">
          <mxGeometry x="30" y="272.5" width="140" height="60" as="geometry" />
        </mxCell>
        <mxCell id="nSm_Fh-NACfpATgbBI2l-3" value="&lt;font style=&quot;font-size: 13px;&quot;&gt;- Endereço&lt;/font&gt;" style="text;strokeColor=none;fillColor=none;align=left;verticalAlign=middle;spacingLeft=4;spacingRight=4;overflow=hidden;points=[[0,0.5],[1,0.5]];portConstraint=eastwest;rotatable=0;whiteSpace=wrap;html=1;" parent="nSm_Fh-NACfpATgbBI2l-2" vertex="1">
          <mxGeometry y="30" width="140" height="30" as="geometry" />
        </mxCell>
        <mxCell id="aXNSUFcS2eIyysZ0dD_0-5" style="edgeStyle=orthogonalEdgeStyle;rounded=0;orthogonalLoop=1;jettySize=auto;html=1;entryX=0.5;entryY=1;entryDx=0;entryDy=0;endArrow=none;endFill=0;exitX=0.5;exitY=0;exitDx=0;exitDy=0;" parent="1" source="nSm_Fh-NACfpATgbBI2l-10" edge="1">
          <mxGeometry relative="1" as="geometry">
            <mxPoint x="307.5" y="205" as="targetPoint" />
            <Array as="points">
              <mxPoint x="400" y="225" />
              <mxPoint x="308" y="225" />
            </Array>
          </mxGeometry>
        </mxCell>
        <mxCell id="nSm_Fh-NACfpATgbBI2l-10" value="Pets" style="swimlane;fontStyle=0;childLayout=stackLayout;horizontal=1;startSize=30;horizontalStack=0;resizeParent=1;resizeParentMax=0;resizeLast=0;collapsible=1;marginBottom=0;whiteSpace=wrap;html=1;" parent="1" vertex="1">
          <mxGeometry x="330" y="235" width="140" height="90" as="geometry" />
        </mxCell>
        <mxCell id="nSm_Fh-NACfpATgbBI2l-11" value="- Nome" style="text;strokeColor=none;fillColor=none;align=left;verticalAlign=middle;spacingLeft=4;spacingRight=4;overflow=hidden;points=[[0,0.5],[1,0.5]];portConstraint=eastwest;rotatable=0;whiteSpace=wrap;html=1;" parent="nSm_Fh-NACfpATgbBI2l-10" vertex="1">
          <mxGeometry y="30" width="140" height="30" as="geometry" />
        </mxCell>
        <mxCell id="nSm_Fh-NACfpATgbBI2l-12" value="- Data de Nascimento" style="text;strokeColor=none;fillColor=none;align=left;verticalAlign=middle;spacingLeft=4;spacingRight=4;overflow=hidden;points=[[0,0.5],[1,0.5]];portConstraint=eastwest;rotatable=0;whiteSpace=wrap;html=1;" parent="nSm_Fh-NACfpATgbBI2l-10" vertex="1">
          <mxGeometry y="60" width="140" height="30" as="geometry" />
        </mxCell>
        <mxCell id="8wSPY-ppsvdyh84R26f_-2" style="edgeStyle=orthogonalEdgeStyle;rounded=0;orthogonalLoop=1;jettySize=auto;html=1;entryX=1;entryY=0.5;entryDx=0;entryDy=0;endArrow=none;endFill=0;" parent="1" source="nSm_Fh-NACfpATgbBI2l-22" target="nSm_Fh-NACfpATgbBI2l-28" edge="1">
          <mxGeometry relative="1" as="geometry" />
        </mxCell>
        <mxCell id="nSm_Fh-NACfpATgbBI2l-22" value="Veterinário" style="rounded=0;whiteSpace=wrap;html=1;" parent="1" vertex="1">
          <mxGeometry x="342.5" y="502.5" width="120" height="60" as="geometry" />
        </mxCell>
        <mxCell id="nSm_Fh-NACfpATgbBI2l-31" style="edgeStyle=orthogonalEdgeStyle;rounded=0;orthogonalLoop=1;jettySize=auto;html=1;entryX=1.007;entryY=0.1;entryDx=0;entryDy=0;entryPerimeter=0;endArrow=none;endFill=0;" parent="1" source="nSm_Fh-NACfpATgbBI2l-25" target="nSm_Fh-NACfpATgbBI2l-3" edge="1">
          <mxGeometry relative="1" as="geometry" />
        </mxCell>
        <mxCell id="nSm_Fh-NACfpATgbBI2l-32" style="edgeStyle=orthogonalEdgeStyle;rounded=0;orthogonalLoop=1;jettySize=auto;html=1;entryX=-0.011;entryY=0.317;entryDx=0;entryDy=0;entryPerimeter=0;endArrow=none;endFill=0;" parent="1" source="nSm_Fh-NACfpATgbBI2l-25" target="nSm_Fh-NACfpATgbBI2l-12" edge="1">
          <mxGeometry relative="1" as="geometry" />
        </mxCell>
        <mxCell id="nSm_Fh-NACfpATgbBI2l-25" value="&lt;font style=&quot;font-size: 13px;&quot;&gt;Atende&lt;/font&gt;" style="rhombus;whiteSpace=wrap;html=1;" parent="1" vertex="1">
          <mxGeometry x="220" y="272.5" width="65" height="65" as="geometry" />
        </mxCell>
        <mxCell id="nSm_Fh-NACfpATgbBI2l-34" style="edgeStyle=orthogonalEdgeStyle;rounded=0;orthogonalLoop=1;jettySize=auto;html=1;entryX=0.5;entryY=0;entryDx=0;entryDy=0;endArrow=none;endFill=0;" parent="1" source="nSm_Fh-NACfpATgbBI2l-27" target="nSm_Fh-NACfpATgbBI2l-22" edge="1">
          <mxGeometry relative="1" as="geometry" />
        </mxCell>
        <mxCell id="g0hsDSkBsKJGjvme_00I-1" style="edgeStyle=orthogonalEdgeStyle;rounded=0;orthogonalLoop=1;jettySize=auto;html=1;entryX=0.411;entryY=1;entryDx=0;entryDy=0;entryPerimeter=0;endArrow=none;endFill=0;" parent="1" source="nSm_Fh-NACfpATgbBI2l-27" target="nSm_Fh-NACfpATgbBI2l-12" edge="1">
          <mxGeometry relative="1" as="geometry">
            <Array as="points">
              <mxPoint x="403" y="369" />
              <mxPoint x="402" y="369" />
            </Array>
          </mxGeometry>
        </mxCell>
        <mxCell id="nSm_Fh-NACfpATgbBI2l-27" value="&lt;font style=&quot;font-size: 13px;&quot;&gt;Atende&lt;/font&gt;" style="rhombus;whiteSpace=wrap;html=1;" parent="1" vertex="1">
          <mxGeometry x="370" y="380" width="65" height="65" as="geometry" />
        </mxCell>
        <mxCell id="nSm_Fh-NACfpATgbBI2l-29" style="edgeStyle=orthogonalEdgeStyle;rounded=0;orthogonalLoop=1;jettySize=auto;html=1;entryX=0.446;entryY=1.007;entryDx=0;entryDy=0;entryPerimeter=0;endArrow=none;endFill=0;" parent="1" source="nSm_Fh-NACfpATgbBI2l-28" target="nSm_Fh-NACfpATgbBI2l-3" edge="1">
          <mxGeometry relative="1" as="geometry">
            <mxPoint x="130" y="362.5" as="targetPoint" />
          </mxGeometry>
        </mxCell>
        <mxCell id="nSm_Fh-NACfpATgbBI2l-28" value="&lt;span style=&quot;font-size: 13px;&quot;&gt;Possui&lt;/span&gt;" style="rhombus;whiteSpace=wrap;html=1;" parent="1" vertex="1">
          <mxGeometry x="60" y="500" width="65" height="65" as="geometry" />
        </mxCell>
        <mxCell id="nSm_Fh-NACfpATgbBI2l-35" value="&lt;font style=&quot;font-size: 13px;&quot;&gt;Dono&lt;/font&gt;" style="rounded=0;whiteSpace=wrap;html=1;" parent="1" vertex="1">
          <mxGeometry x="690" y="280.5" width="120" height="60" as="geometry" />
        </mxCell>
        <mxCell id="nSm_Fh-NACfpATgbBI2l-37" style="edgeStyle=orthogonalEdgeStyle;rounded=0;orthogonalLoop=1;jettySize=auto;html=1;entryX=1;entryY=0.5;entryDx=0;entryDy=0;endArrow=none;endFill=0;" parent="1" source="nSm_Fh-NACfpATgbBI2l-36" target="nSm_Fh-NACfpATgbBI2l-12" edge="1">
          <mxGeometry relative="1" as="geometry" />
        </mxCell>
        <mxCell id="nSm_Fh-NACfpATgbBI2l-38" style="edgeStyle=orthogonalEdgeStyle;rounded=0;orthogonalLoop=1;jettySize=auto;html=1;entryX=0;entryY=0.5;entryDx=0;entryDy=0;endArrow=none;endFill=0;" parent="1" source="nSm_Fh-NACfpATgbBI2l-36" target="nSm_Fh-NACfpATgbBI2l-35" edge="1">
          <mxGeometry relative="1" as="geometry" />
        </mxCell>
        <mxCell id="nSm_Fh-NACfpATgbBI2l-36" value="&lt;span style=&quot;font-size: 13px;&quot;&gt;Possui&lt;/span&gt;" style="rhombus;whiteSpace=wrap;html=1;" parent="1" vertex="1">
          <mxGeometry x="560" y="278" width="65" height="65" as="geometry" />
        </mxCell>
        <mxCell id="nSm_Fh-NACfpATgbBI2l-39" value="&lt;font style=&quot;font-size: 13px;&quot;&gt;1&lt;/font&gt;" style="text;html=1;align=center;verticalAlign=middle;resizable=0;points=[];autosize=1;strokeColor=none;fillColor=none;" parent="1" vertex="1">
          <mxGeometry x="170" y="272.5" width="30" height="30" as="geometry" />
        </mxCell>
        <mxCell id="nSm_Fh-NACfpATgbBI2l-40" value="&lt;span style=&quot;font-size: 13px;&quot;&gt;N&lt;/span&gt;" style="text;html=1;align=center;verticalAlign=middle;resizable=0;points=[];autosize=1;strokeColor=none;fillColor=none;" parent="1" vertex="1">
          <mxGeometry x="300" y="272.5" width="30" height="30" as="geometry" />
        </mxCell>
        <mxCell id="nSm_Fh-NACfpATgbBI2l-41" value="&lt;span style=&quot;font-size: 13px;&quot;&gt;N&lt;/span&gt;" style="text;html=1;align=center;verticalAlign=middle;resizable=0;points=[];autosize=1;strokeColor=none;fillColor=none;" parent="1" vertex="1">
          <mxGeometry x="475" y="278" width="30" height="30" as="geometry" />
        </mxCell>
        <mxCell id="nSm_Fh-NACfpATgbBI2l-42" value="&lt;span style=&quot;font-size: 13px;&quot;&gt;1&lt;/span&gt;" style="text;html=1;align=center;verticalAlign=middle;resizable=0;points=[];autosize=1;strokeColor=none;fillColor=none;" parent="1" vertex="1">
          <mxGeometry x="650" y="278" width="30" height="30" as="geometry" />
        </mxCell>
        <mxCell id="nSm_Fh-NACfpATgbBI2l-43" value="&lt;span style=&quot;font-size: 13px;&quot;&gt;1&lt;/span&gt;" style="text;html=1;align=center;verticalAlign=middle;resizable=0;points=[];autosize=1;strokeColor=none;fillColor=none;" parent="1" vertex="1">
          <mxGeometry x="95" y="340.5" width="30" height="30" as="geometry" />
        </mxCell>
        <mxCell id="nSm_Fh-NACfpATgbBI2l-44" value="&lt;span style=&quot;font-size: 13px;&quot;&gt;1&lt;/span&gt;" style="text;html=1;align=center;verticalAlign=middle;resizable=0;points=[];autosize=1;strokeColor=none;fillColor=none;" parent="1" vertex="1">
          <mxGeometry x="405" y="470" width="30" height="30" as="geometry" />
        </mxCell>
        <mxCell id="nSm_Fh-NACfpATgbBI2l-45" value="&lt;span style=&quot;font-size: 13px;&quot;&gt;N&lt;/span&gt;" style="text;html=1;align=center;verticalAlign=middle;resizable=0;points=[];autosize=1;strokeColor=none;fillColor=none;" parent="1" vertex="1">
          <mxGeometry x="405" y="332.5" width="30" height="30" as="geometry" />
        </mxCell>
        <mxCell id="nSm_Fh-NACfpATgbBI2l-46" value="&lt;span style=&quot;font-size: 13px;&quot;&gt;N&lt;/span&gt;" style="text;html=1;align=center;verticalAlign=middle;resizable=0;points=[];autosize=1;strokeColor=none;fillColor=none;" parent="1" vertex="1">
          <mxGeometry x="130" y="490" width="30" height="30" as="geometry" />
        </mxCell>
        <mxCell id="nSm_Fh-NACfpATgbBI2l-47" value="&lt;span style=&quot;font-size: 13px;&quot;&gt;Relacionamento 1 : N&lt;/span&gt;" style="text;html=1;align=center;verticalAlign=middle;resizable=0;points=[];autosize=1;strokeColor=none;fillColor=none;" parent="1" vertex="1">
          <mxGeometry x="530" y="370.5" width="150" height="30" as="geometry" />
        </mxCell>
        <mxCell id="aXNSUFcS2eIyysZ0dD_0-4" style="edgeStyle=orthogonalEdgeStyle;rounded=0;orthogonalLoop=1;jettySize=auto;html=1;entryX=0;entryY=0.5;entryDx=0;entryDy=0;endArrow=none;endFill=0;" parent="1" source="aXNSUFcS2eIyysZ0dD_0-2" edge="1">
          <mxGeometry relative="1" as="geometry">
            <mxPoint x="272.5" y="170" as="targetPoint" />
          </mxGeometry>
        </mxCell>
        <mxCell id="aXNSUFcS2eIyysZ0dD_0-2" value="Raça" style="rounded=0;whiteSpace=wrap;html=1;" parent="1" vertex="1">
          <mxGeometry x="110" y="140" width="120" height="60" as="geometry" />
        </mxCell>
        <mxCell id="aXNSUFcS2eIyysZ0dD_0-3" value="Possui" style="rhombus;whiteSpace=wrap;html=1;" parent="1" vertex="1">
          <mxGeometry x="272.5" y="135" width="70" height="70" as="geometry" />
        </mxCell>
        <mxCell id="aXNSUFcS2eIyysZ0dD_0-6" value="&lt;span style=&quot;font-size: 13px;&quot;&gt;1&lt;/span&gt;" style="text;html=1;align=center;verticalAlign=middle;resizable=0;points=[];autosize=1;strokeColor=none;fillColor=none;" parent="1" vertex="1">
          <mxGeometry x="230" y="140" width="30" height="30" as="geometry" />
        </mxCell>
        <mxCell id="aXNSUFcS2eIyysZ0dD_0-7" value="&lt;span style=&quot;font-size: 13px;&quot;&gt;N&lt;/span&gt;" style="text;html=1;align=center;verticalAlign=middle;resizable=0;points=[];autosize=1;strokeColor=none;fillColor=none;" parent="1" vertex="1">
          <mxGeometry x="312.5" y="195" width="30" height="30" as="geometry" />
        </mxCell>
        <mxCell id="g0hsDSkBsKJGjvme_00I-2" value="Tipo" style="rounded=0;whiteSpace=wrap;html=1;" parent="1" vertex="1">
          <mxGeometry x="605" y="145" width="120" height="60" as="geometry" />
        </mxCell>
        <mxCell id="g0hsDSkBsKJGjvme_00I-4" style="edgeStyle=orthogonalEdgeStyle;rounded=0;orthogonalLoop=1;jettySize=auto;html=1;entryX=0.569;entryY=0.002;entryDx=0;entryDy=0;entryPerimeter=0;exitX=0.5;exitY=1;exitDx=0;exitDy=0;endArrow=none;endFill=0;" parent="1" source="g0hsDSkBsKJGjvme_00I-3" target="nSm_Fh-NACfpATgbBI2l-10" edge="1">
          <mxGeometry relative="1" as="geometry">
            <Array as="points">
              <mxPoint x="525" y="225" />
              <mxPoint x="424" y="225" />
            </Array>
          </mxGeometry>
        </mxCell>
        <mxCell id="g0hsDSkBsKJGjvme_00I-5" style="edgeStyle=orthogonalEdgeStyle;rounded=0;orthogonalLoop=1;jettySize=auto;html=1;entryX=0;entryY=0.5;entryDx=0;entryDy=0;endArrow=none;endFill=0;" parent="1" source="g0hsDSkBsKJGjvme_00I-3" target="g0hsDSkBsKJGjvme_00I-2" edge="1">
          <mxGeometry relative="1" as="geometry" />
        </mxCell>
        <mxCell id="g0hsDSkBsKJGjvme_00I-3" value="Possui" style="rhombus;whiteSpace=wrap;html=1;" parent="1" vertex="1">
          <mxGeometry x="490" y="140" width="70" height="70" as="geometry" />
        </mxCell>
        <mxCell id="g0hsDSkBsKJGjvme_00I-6" value="&lt;span style=&quot;font-size: 13px;&quot;&gt;1&lt;/span&gt;" style="text;html=1;align=center;verticalAlign=middle;resizable=0;points=[];autosize=1;strokeColor=none;fillColor=none;" parent="1" vertex="1">
          <mxGeometry x="575" y="145" width="30" height="30" as="geometry" />
        </mxCell>
        <mxCell id="g0hsDSkBsKJGjvme_00I-7" value="&lt;span style=&quot;font-size: 13px;&quot;&gt;N&lt;/span&gt;" style="text;html=1;align=center;verticalAlign=middle;resizable=0;points=[];autosize=1;strokeColor=none;fillColor=none;" parent="1" vertex="1">
          <mxGeometry x="490" y="195" width="30" height="30" as="geometry" />
        </mxCell>
      </root>
    </mxGraphModel>
  </diagram>
</mxfile>
